<svg width="44" height="55" viewBox="0 0 44 55" fill="none" xmlns="http://www.w3.org/2000/svg">
<path d="M22 35.75C24.5667 35.75 26.8812 35.1193 28.9437 33.858C31.0062 32.5985 32.6333 30.9375 33.825 28.875C32.2208 27.5458 30.4104 26.5256 28.3937 25.8143C26.3771 25.1048 24.2458 24.75 22 24.75C19.7542 24.75 17.6229 25.1048 15.6063 25.8143C13.5896 26.5256 11.7792 27.5458 10.175 28.875C11.3667 30.9375 12.9938 32.5985 15.0563 33.858C17.1188 35.1193 19.4333 35.75 22 35.75ZM22 22C23.5125 22 24.8078 21.461 25.8858 20.383C26.9619 19.3068 27.5 18.0125 27.5 16.5C27.5 14.9875 26.9619 13.6932 25.8858 12.617C24.8078 11.539 23.5125 11 22 11C20.4875 11 19.1932 11.539 18.117 12.617C17.039 13.6932 16.5 14.9875 16.5 16.5C16.5 18.0125 17.039 19.3068 18.117 20.383C19.1932 21.461 20.4875 22 22 22ZM22 47.7125C27.5917 42.5792 31.7396 37.9152 34.4437 33.7205C37.1479 29.5277 38.5 25.8042 38.5 22.55C38.5 17.5542 36.9068 13.4631 33.7205 10.2767C30.536 7.09225 26.6292 5.5 22 5.5C17.3708 5.5 13.4631 7.09225 10.2767 10.2767C7.09225 13.4631 5.5 17.5542 5.5 22.55C5.5 25.8042 6.85208 29.5277 9.55625 33.7205C12.2604 37.9152 16.4083 42.5792 22 47.7125ZM22 55C14.6208 48.7208 9.10983 42.8881 5.467 37.5018C1.82233 32.1173 0 27.1333 0 22.55C0 15.675 2.21192 10.1979 6.63575 6.11875C11.0578 2.03958 16.1792 0 22 0C27.8208 0 32.9422 2.03958 37.3642 6.11875C41.7881 10.1979 44 15.675 44 22.55C44 27.1333 42.1786 32.1173 38.5358 37.5018C34.8911 42.8881 29.3792 48.7208 22 55Z" fill="white"/>
</svg>
