<svg width="42" height="42" viewBox="0 0 42 42" fill="none" xmlns="http://www.w3.org/2000/svg">
<path d="M31.9594 20.1469L36.2906 15.832C36.6573 15.4605 36.8629 14.9595 36.8629 14.4375C36.8629 13.9155 36.6573 13.4145 36.2906 13.043L28.957 5.70937C28.5835 5.34656 28.0832 5.14362 27.5625 5.14362C27.0418 5.14362 26.5415 5.34656 26.168 5.70937L6.48047 25.3969C6.28495 25.592 6.13386 25.8271 6.0375 26.0859C5.95143 26.3055 5.90693 26.5392 5.90625 26.775V34.125C5.90625 34.6471 6.11367 35.1479 6.48288 35.5171C6.8521 35.8863 7.35286 36.0937 7.875 36.0937H35.4375C35.6116 36.0937 35.7785 36.0246 35.9015 35.9015C36.0246 35.7785 36.0938 35.6115 36.0938 35.4375C36.0938 35.2634 36.0246 35.0965 35.9015 34.9735C35.7785 34.8504 35.6116 34.7812 35.4375 34.7812H17.3414L31.9594 20.1469ZM27.1031 6.64453C27.1628 6.58301 27.2342 6.5341 27.3131 6.50069C27.392 6.46729 27.4768 6.45008 27.5625 6.45008C27.6482 6.45008 27.733 6.46729 27.8119 6.50069C27.8908 6.5341 27.9622 6.58301 28.0219 6.64453L35.3555 13.9781C35.417 14.0378 35.4659 14.1092 35.4993 14.1881C35.5327 14.267 35.5499 14.3518 35.5499 14.4375C35.5499 14.5232 35.5327 14.608 35.4993 14.6869C35.4659 14.7658 35.417 14.8372 35.3555 14.8969L31.5 18.7523L23.2477 10.5L27.1031 6.64453ZM12.0914 30.8437L26.9063 16.0289L30.5648 19.6875L15.75 34.5023L12.0914 30.8437ZM7.49766 26.25L22.3125 11.4352L25.9711 15.0937L11.1563 29.9086L7.49766 26.25ZM7.21875 34.125V27.8414L10.6969 31.3031L14.1586 34.7812H7.875C7.70095 34.7812 7.53403 34.7121 7.41096 34.589C7.28789 34.466 7.21875 34.299 7.21875 34.125Z" fill="#213E25"/>
</svg>
